<?xml version="1.0" standalone="no"?>
<!DOCTYPE svg PUBLIC "-//W3C//DTD SVG 20010904//EN"
 "http://www.w3.org/TR/2001/REC-SVG-20010904/DTD/svg10.dtd">
<svg version="1.0" xmlns="http://www.w3.org/2000/svg"
 width="640.000000pt" height="640.000000pt" viewBox="0 0 640.000000 640.000000"
 preserveAspectRatio="xMidYMid meet">
<metadata>
Created by potrace 1.11, written by Peter Selinger 2001-2013
</metadata>
<g transform="translate(0.000000,640.000000) scale(0.100000,-0.100000)"
fill="#000000" stroke="none">
<path d="M2278 5755 c-2 -1 -43 -6 -93 -9 -49 -3 -106 -8 -125 -11 -19 -2 -55
-7 -80 -10 -102 -11 -189 -24 -210 -30 -8 -2 -33 -7 -55 -10 -66 -11 -79 -14
-105 -20 -14 -3 -36 -8 -50 -10 -31 -5 -194 -47 -275 -70 -127 -36 -355 -116
-460 -160 -60 -25 -129 -54 -152 -63 -24 -9 -43 -20 -43 -24 0 -4 -7 -8 -15
-8 -18 0 -246 -117 -320 -165 -55 -35 -155 -128 -155 -144 0 -5 -3 -11 -7 -13
-12 -5 -57 -78 -71 -113 -6 -16 -17 -43 -23 -60 -13 -31 -14 -34 -25 -75 -12
-47 -12 -225 1 -295 15 -78 21 -111 29 -170 4 -22 9 -51 13 -65 3 -14 7 -38 9
-54 1 -16 6 -41 9 -55 7 -26 8 -32 20 -106 4 -22 9 -49 11 -60 1 -11 5 -33 8
-50 5 -34 34 -196 41 -235 3 -14 8 -40 11 -59 3 -18 8 -43 10 -55 10 -52 16
-83 19 -106 2 -14 6 -36 9 -50 6 -33 65 -364 72 -408 3 -19 8 -44 10 -56 2
-11 8 -46 14 -76 5 -30 12 -71 16 -90 3 -19 8 -44 10 -55 1 -11 6 -31 9 -45 3
-14 7 -34 9 -45 10 -64 96 -252 157 -342 244 -359 701 -686 1218 -873 45 -16
81 -26 81 -23 0 3 6 1 13 -4 11 -9 192 -60 242 -69 11 -1 49 -8 85 -14 109
-20 298 -29 319 -15 9 5 8 13 -7 29 -25 28 -162 222 -162 229 0 3 -13 26 -30
50 -16 25 -30 49 -30 53 0 5 -9 20 -20 34 -11 14 -20 33 -20 42 0 9 -3 18 -8
20 -9 4 -80 150 -88 183 -8 33 -17 38 -104 65 -41 13 -79 26 -85 29 -5 3 -15
6 -20 7 -62 9 -446 219 -538 294 -162 131 -225 192 -292 285 -35 49 -94 161
-94 180 0 5 -4 30 -16 100 -3 17 -8 45 -11 64 -3 18 -8 43 -10 55 -2 11 -11
62 -20 111 -8 50 -17 101 -20 115 -3 14 -7 39 -9 55 -3 17 -9 50 -14 75 -5 25
-12 63 -15 85 -6 39 -22 127 -30 171 -2 12 -7 37 -10 55 -3 19 -8 45 -10 59
-3 14 -10 52 -15 85 -6 33 -13 71 -16 85 -3 13 -7 40 -10 60 -5 35 -10 61 -20
110 -2 14 -7 41 -10 60 -5 30 -17 98 -30 165 -2 11 -11 63 -21 115 -42 243
-53 211 101 291 72 37 132 67 135 66 3 0 35 14 73 31 37 18 69 32 71 32 2 0
21 8 42 17 22 9 44 18 49 19 6 1 73 24 150 50 131 44 152 51 165 52 3 0 17 5
33 11 15 6 38 13 50 15 12 3 31 7 42 10 51 13 204 46 235 51 19 3 42 8 50 10
8 2 35 6 60 9 25 3 56 8 69 11 116 22 478 44 502 30 5 -4 9 -2 9 3 0 6 9 8 20
5 32 -8 62 4 103 42 21 19 42 35 47 35 4 0 10 3 12 8 9 22 192 118 261 137 4
2 8 3 10 5 1 1 9 3 17 5 125 26 174 35 220 40 30 3 66 7 80 10 39 8 248 22
338 24 26 1 42 6 42 13 0 7 -35 47 -78 88 -113 110 -239 167 -402 184 -30 3
-66 8 -80 10 -14 3 -56 8 -95 11 -38 4 -86 9 -105 12 -39 5 -616 13 -622 8z"/>
<path d="M3776 5122 c-2 -1 -57 -5 -122 -7 -65 -3 -144 -7 -174 -10 -97 -9
-154 -15 -190 -20 -19 -3 -55 -7 -80 -11 -133 -17 -278 -72 -345 -130 -17 -14
-37 -31 -45 -38 -31 -23 -101 -111 -131 -162 -35 -61 -75 -172 -83 -229 -3
-22 -13 -78 -21 -125 -9 -47 -17 -96 -19 -110 -2 -14 -11 -64 -20 -110 -8 -47
-18 -98 -21 -115 -2 -16 -7 -41 -10 -55 -3 -14 -7 -38 -10 -55 -2 -16 -6 -40
-9 -52 -2 -11 -8 -43 -11 -70 -4 -26 -11 -64 -15 -83 -5 -19 -11 -53 -14 -75
-4 -22 -8 -51 -11 -65 -2 -14 -6 -36 -9 -50 -2 -14 -11 -63 -20 -110 -8 -47
-18 -102 -22 -124 -3 -21 -8 -48 -10 -60 -4 -22 -7 -39 -25 -141 -6 -33 -12
-71 -15 -85 -2 -14 -7 -40 -10 -59 -3 -18 -7 -42 -9 -53 -62 -318 -62 -476 -1
-693 2 -5 6 -23 11 -40 4 -16 10 -34 14 -40 3 -5 6 -12 7 -15 6 -32 89 -220
96 -220 4 0 8 -7 8 -14 0 -18 54 -111 129 -225 31 -46 61 -91 66 -99 14 -21
30 -42 121 -152 147 -177 373 -387 539 -501 28 -19 52 -37 55 -40 11 -13 202
-121 264 -149 68 -30 178 -67 231 -77 53 -10 278 -11 335 -2 30 5 73 11 94 15
21 3 82 17 135 30 53 14 103 27 111 29 8 2 42 13 75 25 33 11 67 22 75 24 37
10 225 93 332 146 136 69 383 220 408 250 3 3 21 17 40 30 19 14 46 35 60 47
14 12 36 31 50 43 67 57 178 172 232 240 33 41 66 83 74 93 8 9 14 19 14 21 0
2 17 33 38 67 36 61 100 200 106 230 1 8 8 32 14 54 6 22 13 58 17 80 3 22 12
76 20 120 8 44 17 94 20 110 3 17 7 44 10 60 13 72 35 192 40 220 3 17 7 44
10 60 3 17 10 57 16 90 5 33 14 83 19 110 5 28 17 88 25 135 8 47 26 148 40
225 14 77 27 157 31 179 3 21 8 48 10 60 2 11 15 84 29 161 14 77 27 149 29
160 29 153 32 302 7 368 -6 15 -9 27 -6 27 11 0 -73 175 -102 211 -42 53 -112
118 -163 153 -43 30 -389 209 -410 212 -5 1 -19 7 -95 39 -57 24 -247 96 -265
101 -8 2 -46 14 -85 27 -38 13 -126 39 -195 57 -69 18 -132 35 -140 38 -8 3
-24 7 -35 9 -11 2 -51 10 -90 18 -38 8 -81 17 -95 19 -14 3 -34 7 -45 9 -11 3
-42 8 -70 12 -27 5 -57 9 -65 10 -8 2 -42 6 -75 9 -33 4 -73 9 -90 11 -105 15
-570 37 -579 27z m118 -1246 c64 -29 145 -100 180 -160 59 -101 70 -239 27
-348 -6 -16 -13 -28 -17 -28 -3 0 -31 20 -62 44 -175 136 -409 176 -618 106
-33 -11 -62 -20 -66 -20 -14 0 -8 92 9 154 16 58 57 130 95 168 28 28 116 88
135 92 10 1 25 6 34 10 67 29 195 21 283 -18z m1223 -207 c194 -66 310 -273
261 -467 -6 -25 -17 -57 -23 -69 l-12 -23 -29 28 c-65 61 -197 129 -284 147
-89 18 -178 22 -254 11 -53 -7 -148 -36 -163 -48 -38 -31 -26 128 17 213 16
33 36 66 44 74 8 8 23 25 33 37 78 97 275 144 410 97z m-1797 -1114 c0 4 8 -2
18 -13 9 -11 55 -46 102 -77 47 -30 90 -59 95 -63 12 -8 71 -37 165 -81 125
-58 352 -123 510 -146 98 -14 267 -21 333 -14 6 1 28 0 47 -1 19 -1 51 0 70 3
19 4 67 11 105 16 94 15 120 20 147 30 13 5 26 9 31 9 26 2 175 59 240 92 l77
39 -7 -27 c-12 -49 -52 -143 -87 -207 -94 -167 -247 -313 -438 -418 -27 -15
-48 -24 -48 -21 0 4 -6 1 -14 -5 -16 -13 -154 -59 -201 -67 -16 -3 -48 -8 -70
-12 -52 -9 -276 -9 -340 0 -82 12 -231 59 -296 94 -19 10 -37 18 -40 19 -8 0
-119 70 -154 97 -115 88 -250 253 -313 383 -73 150 -112 339 -103 506 1 25 7
20 86 -59 47 -47 85 -82 85 -77z"/>
<path d="M1875 4280 c-52 -58 -217 -144 -300 -157 -16 -2 -46 -8 -65 -12 -71
-15 -200 -3 -300 29 -36 11 -66 20 -68 20 -8 0 2 -102 15 -150 8 -30 15 -57
15 -60 1 -12 66 -98 98 -128 67 -62 179 -106 270 -105 149 2 292 90 354 217
49 101 57 225 19 319 l-19 48 -19 -21z"/>
<path d="M2013 3290 c-64 -22 -182 -85 -220 -117 -127 -106 -183 -173 -236
-282 -17 -36 -33 -70 -34 -76 -1 -5 -7 -28 -13 -50 -14 -57 -23 -185 -12 -185
4 0 19 12 33 26 33 35 163 134 176 134 6 0 13 4 15 9 4 11 137 78 213 106 33
13 60 29 61 36 0 13 11 75 20 124 19 96 52 290 50 292 0 1 -25 -7 -53 -17z"/>
</g>
</svg>
